<mxfile host="app.diagrams.net" agent="Mozilla/5.0 (Windows NT 10.0; Win64; x64) AppleWebKit/537.36 (KHTML, like Gecko) Chrome/136.0.0.0 Safari/537.36" version="27.0.3">
  <diagram name="第 1 页" id="DakR5eYnNLrRUAauGVwO">
    <mxGraphModel dx="1042" dy="570" grid="1" gridSize="10" guides="1" tooltips="1" connect="1" arrows="1" fold="1" page="1" pageScale="1" pageWidth="827" pageHeight="1169" math="0" shadow="0">
      <root>
        <mxCell id="0" />
        <mxCell id="1" parent="0" />
        <mxCell id="yNiYmGhusy-P_bAO_o6Z-50" value="普通用户" style="text;html=1;align=center;verticalAlign=middle;resizable=0;points=[];autosize=1;strokeColor=none;fillColor=none;" vertex="1" parent="1">
          <mxGeometry x="50" y="385" width="70" height="30" as="geometry" />
        </mxCell>
        <mxCell id="yNiYmGhusy-P_bAO_o6Z-62" value="" style="rounded=0;whiteSpace=wrap;html=1;" vertex="1" parent="1">
          <mxGeometry x="170" y="20" width="430" height="750" as="geometry" />
        </mxCell>
        <mxCell id="yNiYmGhusy-P_bAO_o6Z-63" style="rounded=0;orthogonalLoop=1;jettySize=auto;html=1;exitX=1;exitY=0.3333333333333333;exitDx=0;exitDy=0;exitPerimeter=0;entryX=0;entryY=0.5;entryDx=0;entryDy=0;" edge="1" parent="1" source="yNiYmGhusy-P_bAO_o6Z-66" target="yNiYmGhusy-P_bAO_o6Z-67">
          <mxGeometry relative="1" as="geometry" />
        </mxCell>
        <mxCell id="yNiYmGhusy-P_bAO_o6Z-64" style="rounded=0;orthogonalLoop=1;jettySize=auto;html=1;exitX=1;exitY=0.3333333333333333;exitDx=0;exitDy=0;exitPerimeter=0;entryX=0;entryY=0.5;entryDx=0;entryDy=0;" edge="1" parent="1" source="yNiYmGhusy-P_bAO_o6Z-66" target="yNiYmGhusy-P_bAO_o6Z-68">
          <mxGeometry relative="1" as="geometry" />
        </mxCell>
        <mxCell id="yNiYmGhusy-P_bAO_o6Z-65" style="rounded=0;orthogonalLoop=1;jettySize=auto;html=1;exitX=1;exitY=0.3333333333333333;exitDx=0;exitDy=0;exitPerimeter=0;entryX=0;entryY=0.5;entryDx=0;entryDy=0;" edge="1" parent="1" source="yNiYmGhusy-P_bAO_o6Z-66" target="yNiYmGhusy-P_bAO_o6Z-69">
          <mxGeometry relative="1" as="geometry" />
        </mxCell>
        <mxCell id="yNiYmGhusy-P_bAO_o6Z-108" style="rounded=0;orthogonalLoop=1;jettySize=auto;html=1;exitX=1;exitY=0.3333333333333333;exitDx=0;exitDy=0;exitPerimeter=0;entryX=0;entryY=0.5;entryDx=0;entryDy=0;" edge="1" parent="1" source="yNiYmGhusy-P_bAO_o6Z-66" target="yNiYmGhusy-P_bAO_o6Z-90">
          <mxGeometry relative="1" as="geometry" />
        </mxCell>
        <mxCell id="yNiYmGhusy-P_bAO_o6Z-66" value="Actor" style="shape=umlActor;verticalLabelPosition=bottom;verticalAlign=top;html=1;outlineConnect=0;fontColor=none;noLabel=1;" vertex="1" parent="1">
          <mxGeometry x="70" y="320" width="30" height="60" as="geometry" />
        </mxCell>
        <mxCell id="yNiYmGhusy-P_bAO_o6Z-91" style="rounded=0;orthogonalLoop=1;jettySize=auto;html=1;exitX=1;exitY=0.5;exitDx=0;exitDy=0;entryX=0;entryY=0.5;entryDx=0;entryDy=0;dashed=1;dashPattern=8 8;" edge="1" parent="1" source="yNiYmGhusy-P_bAO_o6Z-67" target="yNiYmGhusy-P_bAO_o6Z-72">
          <mxGeometry relative="1" as="geometry" />
        </mxCell>
        <mxCell id="yNiYmGhusy-P_bAO_o6Z-67" value="查看量子力学相关模拟" style="ellipse;whiteSpace=wrap;html=1;" vertex="1" parent="1">
          <mxGeometry x="202.5" y="90" width="137.5" height="60" as="geometry" />
        </mxCell>
        <mxCell id="yNiYmGhusy-P_bAO_o6Z-94" style="rounded=0;orthogonalLoop=1;jettySize=auto;html=1;exitX=1;exitY=0.5;exitDx=0;exitDy=0;entryX=0;entryY=0.5;entryDx=0;entryDy=0;dashed=1;dashPattern=8 8;" edge="1" parent="1" source="yNiYmGhusy-P_bAO_o6Z-68" target="yNiYmGhusy-P_bAO_o6Z-73">
          <mxGeometry relative="1" as="geometry" />
        </mxCell>
        <mxCell id="yNiYmGhusy-P_bAO_o6Z-95" style="rounded=0;orthogonalLoop=1;jettySize=auto;html=1;exitX=1;exitY=0.5;exitDx=0;exitDy=0;entryX=0;entryY=0.5;entryDx=0;entryDy=0;dashed=1;dashPattern=8 8;" edge="1" parent="1" source="yNiYmGhusy-P_bAO_o6Z-68" target="yNiYmGhusy-P_bAO_o6Z-76">
          <mxGeometry relative="1" as="geometry" />
        </mxCell>
        <mxCell id="yNiYmGhusy-P_bAO_o6Z-68" value="查看量子相关的模拟" style="ellipse;whiteSpace=wrap;html=1;" vertex="1" parent="1">
          <mxGeometry x="200" y="260" width="120" height="60" as="geometry" />
        </mxCell>
        <mxCell id="yNiYmGhusy-P_bAO_o6Z-100" style="rounded=0;orthogonalLoop=1;jettySize=auto;html=1;exitX=1;exitY=0.5;exitDx=0;exitDy=0;entryX=0;entryY=0.5;entryDx=0;entryDy=0;dashed=1;dashPattern=8 8;" edge="1" parent="1" source="yNiYmGhusy-P_bAO_o6Z-69" target="yNiYmGhusy-P_bAO_o6Z-79">
          <mxGeometry relative="1" as="geometry" />
        </mxCell>
        <mxCell id="yNiYmGhusy-P_bAO_o6Z-101" style="rounded=0;orthogonalLoop=1;jettySize=auto;html=1;exitX=1;exitY=0.5;exitDx=0;exitDy=0;entryX=0;entryY=0.5;entryDx=0;entryDy=0;dashed=1;dashPattern=8 8;" edge="1" parent="1" source="yNiYmGhusy-P_bAO_o6Z-69" target="yNiYmGhusy-P_bAO_o6Z-77">
          <mxGeometry relative="1" as="geometry" />
        </mxCell>
        <mxCell id="yNiYmGhusy-P_bAO_o6Z-69" value="查看量子比特模拟" style="ellipse;whiteSpace=wrap;html=1;" vertex="1" parent="1">
          <mxGeometry x="200" y="430" width="125" height="60" as="geometry" />
        </mxCell>
        <mxCell id="yNiYmGhusy-P_bAO_o6Z-102" style="rounded=0;orthogonalLoop=1;jettySize=auto;html=1;exitX=1;exitY=0.5;exitDx=0;exitDy=0;entryX=0;entryY=0.5;entryDx=0;entryDy=0;dashed=1;dashPattern=8 8;" edge="1" parent="1" source="yNiYmGhusy-P_bAO_o6Z-70" target="yNiYmGhusy-P_bAO_o6Z-81">
          <mxGeometry relative="1" as="geometry" />
        </mxCell>
        <mxCell id="yNiYmGhusy-P_bAO_o6Z-103" style="rounded=0;orthogonalLoop=1;jettySize=auto;html=1;exitX=1;exitY=0.5;exitDx=0;exitDy=0;entryX=0;entryY=0.5;entryDx=0;entryDy=0;dashed=1;dashPattern=8 8;" edge="1" parent="1" source="yNiYmGhusy-P_bAO_o6Z-70" target="yNiYmGhusy-P_bAO_o6Z-83">
          <mxGeometry relative="1" as="geometry" />
        </mxCell>
        <mxCell id="yNiYmGhusy-P_bAO_o6Z-70" value="查看量子测量模拟" style="ellipse;whiteSpace=wrap;html=1;" vertex="1" parent="1">
          <mxGeometry x="197.5" y="540" width="115" height="60" as="geometry" />
        </mxCell>
        <mxCell id="yNiYmGhusy-P_bAO_o6Z-71" value="量子模拟" style="text;strokeColor=none;align=center;fillColor=none;html=1;verticalAlign=middle;whiteSpace=wrap;rounded=0;fontSize=16;" vertex="1" parent="1">
          <mxGeometry x="370" y="30" width="80" height="30" as="geometry" />
        </mxCell>
        <mxCell id="yNiYmGhusy-P_bAO_o6Z-92" style="rounded=0;orthogonalLoop=1;jettySize=auto;html=1;exitX=1;exitY=0.5;exitDx=0;exitDy=0;entryX=0;entryY=0.5;entryDx=0;entryDy=0;dashed=1;dashPattern=8 8;" edge="1" parent="1" source="yNiYmGhusy-P_bAO_o6Z-72" target="yNiYmGhusy-P_bAO_o6Z-74">
          <mxGeometry relative="1" as="geometry" />
        </mxCell>
        <mxCell id="yNiYmGhusy-P_bAO_o6Z-93" style="rounded=0;orthogonalLoop=1;jettySize=auto;html=1;exitX=1;exitY=0.5;exitDx=0;exitDy=0;entryX=0;entryY=0.5;entryDx=0;entryDy=0;dashed=1;dashPattern=8 8;" edge="1" parent="1" source="yNiYmGhusy-P_bAO_o6Z-72" target="yNiYmGhusy-P_bAO_o6Z-75">
          <mxGeometry relative="1" as="geometry" />
        </mxCell>
        <mxCell id="yNiYmGhusy-P_bAO_o6Z-72" value="双缝实验模拟" style="ellipse;whiteSpace=wrap;html=1;" vertex="1" parent="1">
          <mxGeometry x="370" y="105" width="106" height="30" as="geometry" />
        </mxCell>
        <mxCell id="yNiYmGhusy-P_bAO_o6Z-96" style="rounded=0;orthogonalLoop=1;jettySize=auto;html=1;exitX=1;exitY=0.5;exitDx=0;exitDy=0;entryX=0;entryY=0.5;entryDx=0;entryDy=0;dashed=1;dashPattern=8 8;" edge="1" parent="1" source="yNiYmGhusy-P_bAO_o6Z-73" target="yNiYmGhusy-P_bAO_o6Z-86">
          <mxGeometry relative="1" as="geometry" />
        </mxCell>
        <mxCell id="yNiYmGhusy-P_bAO_o6Z-97" style="rounded=0;orthogonalLoop=1;jettySize=auto;html=1;exitX=1;exitY=0.5;exitDx=0;exitDy=0;entryX=0;entryY=0.5;entryDx=0;entryDy=0;dashed=1;dashPattern=8 8;" edge="1" parent="1" source="yNiYmGhusy-P_bAO_o6Z-73" target="yNiYmGhusy-P_bAO_o6Z-89">
          <mxGeometry relative="1" as="geometry" />
        </mxCell>
        <mxCell id="yNiYmGhusy-P_bAO_o6Z-73" value="量子叠加模拟" style="ellipse;whiteSpace=wrap;html=1;" vertex="1" parent="1">
          <mxGeometry x="357" y="220" width="90" height="30" as="geometry" />
        </mxCell>
        <mxCell id="yNiYmGhusy-P_bAO_o6Z-74" value="了解原理" style="ellipse;whiteSpace=wrap;html=1;" vertex="1" parent="1">
          <mxGeometry x="520" y="70" width="70" height="30" as="geometry" />
        </mxCell>
        <mxCell id="yNiYmGhusy-P_bAO_o6Z-75" value="可视化交互" style="ellipse;whiteSpace=wrap;html=1;" vertex="1" parent="1">
          <mxGeometry x="520" y="120" width="70" height="30" as="geometry" />
        </mxCell>
        <mxCell id="yNiYmGhusy-P_bAO_o6Z-98" style="rounded=0;orthogonalLoop=1;jettySize=auto;html=1;exitX=1;exitY=0.5;exitDx=0;exitDy=0;entryX=0;entryY=0.5;entryDx=0;entryDy=0;dashed=1;dashPattern=8 8;" edge="1" parent="1" source="yNiYmGhusy-P_bAO_o6Z-76" target="yNiYmGhusy-P_bAO_o6Z-88">
          <mxGeometry relative="1" as="geometry" />
        </mxCell>
        <mxCell id="yNiYmGhusy-P_bAO_o6Z-99" style="rounded=0;orthogonalLoop=1;jettySize=auto;html=1;exitX=1;exitY=0.5;exitDx=0;exitDy=0;entryX=0;entryY=0.5;entryDx=0;entryDy=0;dashed=1;dashPattern=8 8;" edge="1" parent="1" source="yNiYmGhusy-P_bAO_o6Z-76" target="yNiYmGhusy-P_bAO_o6Z-87">
          <mxGeometry relative="1" as="geometry" />
        </mxCell>
        <mxCell id="yNiYmGhusy-P_bAO_o6Z-76" value="量子纠缠模拟" style="ellipse;whiteSpace=wrap;html=1;" vertex="1" parent="1">
          <mxGeometry x="360" y="300" width="90" height="30" as="geometry" />
        </mxCell>
        <mxCell id="yNiYmGhusy-P_bAO_o6Z-77" value="可视化交互" style="ellipse;whiteSpace=wrap;html=1;" vertex="1" parent="1">
          <mxGeometry x="375" y="460" width="70" height="30" as="geometry" />
        </mxCell>
        <mxCell id="yNiYmGhusy-P_bAO_o6Z-78" value="可视化交互" style="ellipse;whiteSpace=wrap;html=1;" vertex="1" parent="1">
          <mxGeometry x="490" y="510" width="70" height="30" as="geometry" />
        </mxCell>
        <mxCell id="yNiYmGhusy-P_bAO_o6Z-79" value="了解原理" style="ellipse;whiteSpace=wrap;html=1;" vertex="1" parent="1">
          <mxGeometry x="367" y="410" width="70" height="30" as="geometry" />
        </mxCell>
        <mxCell id="yNiYmGhusy-P_bAO_o6Z-80" value="了解原理" style="ellipse;whiteSpace=wrap;html=1;" vertex="1" parent="1">
          <mxGeometry x="480" y="555" width="90" height="30" as="geometry" />
        </mxCell>
        <mxCell id="yNiYmGhusy-P_bAO_o6Z-104" style="rounded=0;orthogonalLoop=1;jettySize=auto;html=1;exitX=1;exitY=0.5;exitDx=0;exitDy=0;entryX=0;entryY=0.5;entryDx=0;entryDy=0;dashed=1;dashPattern=8 8;" edge="1" parent="1" source="yNiYmGhusy-P_bAO_o6Z-81" target="yNiYmGhusy-P_bAO_o6Z-78">
          <mxGeometry relative="1" as="geometry" />
        </mxCell>
        <mxCell id="yNiYmGhusy-P_bAO_o6Z-105" style="rounded=0;orthogonalLoop=1;jettySize=auto;html=1;exitX=1;exitY=0.5;exitDx=0;exitDy=0;entryX=0;entryY=0.5;entryDx=0;entryDy=0;dashed=1;dashPattern=8 8;" edge="1" parent="1" source="yNiYmGhusy-P_bAO_o6Z-81" target="yNiYmGhusy-P_bAO_o6Z-80">
          <mxGeometry relative="1" as="geometry" />
        </mxCell>
        <mxCell id="yNiYmGhusy-P_bAO_o6Z-81" value="量子测量模拟" style="ellipse;whiteSpace=wrap;html=1;" vertex="1" parent="1">
          <mxGeometry x="369" y="530" width="90" height="30" as="geometry" />
        </mxCell>
        <mxCell id="yNiYmGhusy-P_bAO_o6Z-82" value="了解原理" style="ellipse;whiteSpace=wrap;html=1;" vertex="1" parent="1">
          <mxGeometry x="370" y="660" width="90" height="30" as="geometry" />
        </mxCell>
        <mxCell id="yNiYmGhusy-P_bAO_o6Z-83" value="可视化量子算法" style="ellipse;whiteSpace=wrap;html=1;" vertex="1" parent="1">
          <mxGeometry x="369" y="600" width="90" height="30" as="geometry" />
        </mxCell>
        <mxCell id="yNiYmGhusy-P_bAO_o6Z-84" value="可视化交互" style="ellipse;whiteSpace=wrap;html=1;" vertex="1" parent="1">
          <mxGeometry x="360" y="720" width="110" height="30" as="geometry" />
        </mxCell>
        <mxCell id="yNiYmGhusy-P_bAO_o6Z-85" style="rounded=0;orthogonalLoop=1;jettySize=auto;html=1;exitX=1;exitY=0.3333333333333333;exitDx=0;exitDy=0;exitPerimeter=0;entryX=0.039;entryY=0.663;entryDx=0;entryDy=0;entryPerimeter=0;" edge="1" parent="1" source="yNiYmGhusy-P_bAO_o6Z-66" target="yNiYmGhusy-P_bAO_o6Z-70">
          <mxGeometry relative="1" as="geometry" />
        </mxCell>
        <mxCell id="yNiYmGhusy-P_bAO_o6Z-86" value="了解原理" style="ellipse;whiteSpace=wrap;html=1;" vertex="1" parent="1">
          <mxGeometry x="520" y="180" width="70" height="30" as="geometry" />
        </mxCell>
        <mxCell id="yNiYmGhusy-P_bAO_o6Z-87" value="可视化交互" style="ellipse;whiteSpace=wrap;html=1;" vertex="1" parent="1">
          <mxGeometry x="520" y="335" width="70" height="30" as="geometry" />
        </mxCell>
        <mxCell id="yNiYmGhusy-P_bAO_o6Z-88" value="了解原理" style="ellipse;whiteSpace=wrap;html=1;" vertex="1" parent="1">
          <mxGeometry x="520" y="290" width="70" height="30" as="geometry" />
        </mxCell>
        <mxCell id="yNiYmGhusy-P_bAO_o6Z-89" value="可视化交互" style="ellipse;whiteSpace=wrap;html=1;" vertex="1" parent="1">
          <mxGeometry x="520" y="220" width="70" height="30" as="geometry" />
        </mxCell>
        <mxCell id="yNiYmGhusy-P_bAO_o6Z-106" style="rounded=0;orthogonalLoop=1;jettySize=auto;html=1;exitX=1;exitY=0.5;exitDx=0;exitDy=0;entryX=0;entryY=0.5;entryDx=0;entryDy=0;dashed=1;dashPattern=8 8;" edge="1" parent="1" source="yNiYmGhusy-P_bAO_o6Z-90" target="yNiYmGhusy-P_bAO_o6Z-82">
          <mxGeometry relative="1" as="geometry" />
        </mxCell>
        <mxCell id="yNiYmGhusy-P_bAO_o6Z-107" style="rounded=0;orthogonalLoop=1;jettySize=auto;html=1;exitX=1;exitY=0.5;exitDx=0;exitDy=0;entryX=0;entryY=0.5;entryDx=0;entryDy=0;dashed=1;dashPattern=8 8;" edge="1" parent="1" source="yNiYmGhusy-P_bAO_o6Z-90" target="yNiYmGhusy-P_bAO_o6Z-84">
          <mxGeometry relative="1" as="geometry" />
        </mxCell>
        <mxCell id="yNiYmGhusy-P_bAO_o6Z-90" value="查看量子门模拟" style="ellipse;whiteSpace=wrap;html=1;" vertex="1" parent="1">
          <mxGeometry x="205" y="680" width="115" height="60" as="geometry" />
        </mxCell>
      </root>
    </mxGraphModel>
  </diagram>
</mxfile>
